<svg xmlns="http://www.w3.org/2000/svg" id="GraphQL_Logo" width="400" height="400" viewBox="0 0 400 400">
  <style>
    .st0{display:none}.st1{display:inline}.st2{fill:#e535ab}
  </style>
  <g class="st0">
    <g class="st1">
      <path d="M-29.8 151.5h320.3v16.6H-29.8z" class="st2" transform="rotate(-60 130.353 159.824)"/>
    </g>
  </g>
  <g class="st0">
    <g class="st1">
      <path d="M39.8 272.2h320.3v16.6H39.8z" class="st2"/>
    </g>
  </g>
  <path d="M122.1 228.1h16.6v185h-16.6z" class="st2" transform="rotate(-60 130.388 320.594)"/>
  <path d="M261.3-13h16.6v185h-16.6z" class="st2" transform="rotate(-60 269.569 79.515)"/>
  <path d="M37.9 71.1h185v16.6h-185z" class="st2" transform="rotate(-30 130.435 79.452)"/>
  <g class="st0">
    <g class="st1">
      <path d="M261.4-.3H278V320h-16.6z" class="st2" transform="rotate(-30 269.678 159.836)"/>
    </g>
  </g>
  <path d="M53.5 107.2h16.6v185H53.5zM330.9 107.5h16.6v185h-16.6z" class="st2"/>
  <path d="M189.1 313.2H350v14.5H189.1z" class="st2" transform="rotate(-30 269.556 320.51)"/>
  <path d="M369.5 297.9c-9.6 16.7-31 22.4-47.7 12.8s-22.4-31-12.8-47.7 31-22.4 47.7-12.8c16.8 9.7 22.5 31 12.8 47.7M90.9 137c-9.6 16.7-31 22.4-47.7 12.8-16.7-9.6-22.4-31-12.8-47.7s31-22.4 47.7-12.8c16.7 9.7 22.4 31 12.8 47.7M30.5 297.9c-9.6-16.7-3.9-38 12.8-47.7 16.7-9.6 38-3.9 47.7 12.8 9.6 16.7 3.9 38-12.8 47.7-16.8 9.6-38.1 3.9-47.7-12.8M309.1 137c-9.6-16.7-3.9-38 12.8-47.7 16.7-9.6 38-3.9 47.7 12.8 9.6 16.7 3.9 38-12.8 47.7-16.7 9.6-38.1 3.9-47.7-12.8M200 395.8c-19.3 0-34.9-15.6-34.9-34.9S180.7 326 200 326s34.9 15.6 34.9 34.9c0 19.2-15.6 34.9-34.9 34.9M200 74c-19.3 0-34.9-15.6-34.9-34.9S180.7 4.2 200 4.2s34.9 15.6 34.9 34.9S219.3 74 200 74" class="st2"/>
  <g>
    <path fill="#fff" stroke="#e535ab" stroke-miterlimit="10" stroke-width="4" d="M113.9 113.2c-1 1.1-1.7 5.2-2.6 16.8l-1.3 15.5 3.7 3.9c2.1 2.2 26 26.1 53.1 53.3s49.7 50.1 50.4 51.1l1.4 1.3-5 5-4.7 4.7 6.2 6.3 6.2 6.3 11.5-11.5 11.5-11.5 11.2 11.2c9.5 9.6 11.1 11.4 11 12.7-.3 4 3.5 9.2 8.1 11.2 2.8 1.2 7.7.6 10.3-1.1 4.2-2.8 6-8.4 4.5-13.3-1.4-4.4-7.2-8.8-11.3-8.4-1.3.1-3.1-1.5-12.6-11.1l-11.2-11.2 11.5-11.5 11.5-11.5-6.2-6.3-6.2-6.3-4.7 4.8-4.7 4.8-53.4-53.6c-29.3-29.4-54-53.9-54.7-54.3-.8-.4-8.3-.3-16.7.4-11.6.7-15.8 1.3-16.8 2.3zm15.5 15.6c.2-.2 1.7-.2 3.5-.2h3.2l52.1 52.3 52.1 52.3-3.5 3.5-3.5 3.5-52.1-52.3-52.1-52.3v-3.3c0-1.8.2-3.4.3-3.5z"/>
    <path fill="#e535ab" stroke="#fff" stroke-miterlimit="10" stroke-width="4" d="M269.5 110.6c-8.4-.7-15.9-.8-16.7-.4-.8.5-25.4 24.9-54.7 54.3l-53.4 53.6-4.7-4.8-4.7-4.8-6.2 6.3-6.2 6.3 11.5 11.5 11.5 11.5-11.2 11.2c-9.5 9.6-11.3 11.2-12.6 11.1-4.1-.4-9.9 4-11.3 8.4-1.5 5 .3 10.5 4.5 13.3 2.6 1.7 7.4 2.3 10.3 1.1 4.6-2 8.5-7.2 8.1-11.2-.1-1.3 2-3.1 11.5-12.7l10.7-11.2 11.5 11.5 11.5 11.5 6.2-6.3 6.2-6.3-4.7-4.7-5-5 1.3-1.4c.6-1 23.3-23.9 50.4-51.1s50.9-51.1 53.1-53.3l3.7-3.9-1.3-15.5c-.9-11.6-1.6-15.8-2.6-16.8-1.1-.6-5.3-1.2-16.7-2.2zm1.4 21.7v3.3l-52.1 52.3-52.1 52.3-3.5-3.5-3.5-3.5 52.1-52.3 52.1-52.3h3.2c1.8 0 3.3 0 3.5.2.1.1.3 1.7.3 3.5z"/>
    <path d="M140 213.4l-4.7-4.8-6.2 6.3-6.2 6.3 11.5 11.5 11.5 11.5-11.2 11.2c-9.5 9.6-11.3 11.2-12.6 11.1-4.1-.4-9.9 4-11.3 8.4-1.5 5 .3 10.5 4.5 13.3 2.6 1.7 7.4 2.3 10.3 1.1 4.6-2 8.5-7.2 8.1-11.2-.1-1.3 2-3.1 11.5-12.7l10.7-11.2 11.5 11.5 11.5 11.5 6.2-6.3 6.2-6.3-4.7-4.7-5-5" class="st2"/>
  </g>
</svg>
